<svg xmlns="http://www.w3.org/2000/svg" xmlns:xlink="http://www.w3.org/1999/xlink" version="1.1" width="40" height="40" viewBox="0 0 40 40"><defs><clipPath id="master_svg0_22_12305"><rect x="0" y="0" width="40" height="40" rx="0"/></clipPath></defs><g clip-path="url(#master_svg0_22_12305)"><path fill="currentColor" d="M12.082878,17.927781859375C12.933478,20.305099859375,15.550708,21.548282859375,17.928026,20.697682859375C19.738277,20.043374859375,20.95965,18.320365859375,20.95965,16.401063859375C20.95965,14.459951859375,19.738277,12.736940859375,17.928026,12.082635859375C22.290077,10.948501859375,26.761175,13.565731859375,27.91712,17.927781859375C29.073065,22.289832859375,26.434023,26.760930859375,22.071974,27.916875859375C17.709923,29.072820859375,13.238821,26.433778859375,12.082878,22.071729859375C11.733915,20.719493859375,11.733915,19.280015859375,12.082878,17.927781859375ZM20,39.999755859375C8.9640131,39.999755859375,0,31.057551859375,0,19.999755859375C0,8.941959359375,8.9640131,-0.000244140625,20,-0.000244140625C31.035988,-0.000244140625,40,8.941958459375,40,19.999755859375C40,31.057551859375,31.035988,39.999755859375,20,39.999755859375ZM20,32.715129859375C27.0229,32.715129859375,32.715374,27.022651859375,32.715374,19.999751859375C32.715374,12.976852859375,27.0229,7.284379959375,20,7.284379959375C12.977099,7.284379959375,7.2846236,12.976854859375,7.2846236,19.999755859375C7.2846236,27.022655859375,12.977099,32.715129859375,20,32.715129859375ZM14.547436,2.769657659375C15.921483,4.470857159375,17.993456,5.452318159375,20.196293,5.452318159375C22.377317,5.452318159375,24.471102,4.470857159375,25.845148,2.769657659375C24.034895,2.137160559375,22.115595,1.831817059375,20.196293,1.831817059375C18.211559,1.831817059375,16.314068,2.158970859375,14.547436,2.769657659375Z" style="mix-blend-mode:passthrough"/></g></svg>
